<svg xmlns="http://www.w3.org/2000/svg" width="392" height="392" viewBox="0 0 392 392" version="1.1">
	<path d="M 124.193 24.839 C 129.055 31.679, 147.603 53.745, 148.188 53.384 C 148.582 53.140, 153.723 46.991, 159.611 39.720 C 165.499 32.449, 170.990 25.713, 171.813 24.750 C 173.233 23.090, 172.013 23, 148.098 23 C 123.817 23, 122.935 23.068, 124.193 24.839 M 230.989 37.946 C 237.604 46.166, 243.389 53.122, 243.843 53.403 C 244.522 53.823, 265.844 28.480, 268.371 24.250 C 268.961 23.263, 263.834 23, 244.040 23 L 218.962 23 230.989 37.946 M 156.698 49.636 C 156.314 50.019, 156 57.458, 156 66.167 C 156 79.574, 155.770 82, 154.500 82 C 153.258 82, 153 80.111, 153 71 L 153 60 148 60 L 143 60 143 71 C 143 80.111, 142.742 82, 141.500 82 C 140.229 82, 140 79.556, 140 66 L 140 50 135 50 L 130 50 130 65.962 L 130 81.925 120.750 82.255 L 111.500 82.585 120.750 82.792 L 130 83 130 87.430 C 130 91.230, 129.680 91.923, 127.750 92.294 L 125.500 92.728 127.750 92.864 C 129.314 92.958, 130 93.630, 130 95.067 C 130 96.203, 131.125 98.608, 132.500 100.411 C 134.961 103.638, 134.999 103.972, 134.958 122.094 L 134.917 140.500 131.358 136.500 C 129.401 134.300, 124.697 128.675, 120.905 124 L 114.010 115.500 114.255 104.543 C 114.496 93.775, 114.543 93.576, 117 92.964 C 119.286 92.395, 119.200 92.304, 116 91.899 L 112.500 91.456 112.814 102.333 C 113.010 109.108, 112.761 113.076, 112.153 112.855 C 111.617 112.660, 107.988 108.601, 104.089 103.835 C 97.583 95.882, 97 94.791, 97 90.562 L 97 85.954 94.606 87.522 C 92.245 89.070, 92.107 88.966, 84.356 79.828 L 76.500 70.566 76.223 85.914 C 75.949 101.121, 75.928 101.245, 73.973 99.476 C 72.026 97.714, 72 97.786, 72 104.845 C 72 110.667, 72.373 112.373, 74 114 C 75.575 115.575, 75.973 117.223, 75.875 121.750 C 75.752 127.407, 75.739 127.432, 75.062 123.286 C 74.390 119.163, 72.573 116.244, 68.518 112.772 C 65.218 109.947, 64.681 110.672, 65.347 117.046 C 66.129 124.529, 67.335 126.872, 71.077 128.177 C 72.968 128.836, 74 129.888, 74 131.157 C 74 132.235, 74.450 132.840, 75 132.500 C 76.319 131.685, 76.285 135.599, 74.952 138.089 C 74.036 139.801, 73.722 139.865, 72.452 138.595 C 71.653 137.796, 71 136.359, 71 135.400 C 71 133.521, 62.686 125, 60.854 125 C 60.094 125, 59.959 126.631, 60.426 130.156 C 61.374 137.303, 63.336 140.695, 66.983 141.496 C 70.046 142.169, 70.271 142.558, 70.158 147 L 70.095 149.500 70.841 147.005 C 71.678 144.210, 74.821 143.093, 76.087 145.141 C 76.621 146.005, 76.096 147.369, 74.604 148.990 C 73.333 150.370, 71.940 152.400, 71.509 153.500 C 70.770 155.384, 70.680 155.355, 69.962 153 L 69.199 150.500 68.997 153 C 68.807 155.350, 68.752 155.320, 68.071 152.500 C 66.842 147.404, 65.127 145.139, 59.772 141.533 C 56.933 139.621, 54.433 138.234, 54.216 138.451 C 53.482 139.184, 56.302 149.958, 57.934 152.655 C 58.949 154.334, 61.039 155.749, 63.527 156.444 C 66.856 157.373, 67.564 158.035, 67.896 160.527 C 68.287 163.459, 68.302 163.465, 68.937 161 C 69.637 158.287, 72.548 157.336, 75 159.018 C 76.272 159.891, 76.092 160.385, 73.813 162.274 C 72.335 163.498, 70.585 165.850, 69.923 167.500 L 68.719 170.500 67.959 168 L 67.199 165.500 67.009 168 C 66.834 170.312, 66.751 170.261, 65.903 167.333 C 65.398 165.591, 63.526 162.935, 61.743 161.431 C 58.314 158.540, 52.121 155.545, 51.290 156.377 C 51.018 156.648, 51.588 159.256, 52.557 162.171 C 54.541 168.146, 59.198 173.522, 61.594 172.602 C 62.447 172.275, 64.012 172.471, 65.072 173.039 C 66.648 173.882, 67 175.169, 67 180.094 C 67 183.855, 66.624 185.886, 66 185.500 C 65.450 185.160, 65 184.087, 65 183.115 C 65 180.510, 60.969 177.176, 55.140 174.961 C 48.983 172.622, 48.643 173.389, 52.482 180.964 C 55.508 186.936, 58.267 189, 63.223 189 C 66.130 189, 67 189.396, 67 190.723 C 67 192.138, 67.277 192.049, 68.557 190.223 C 69.629 188.692, 71.137 188, 73.402 188 C 77.296 188, 79.136 186.208, 82.082 179.547 C 84.199 174.763, 84.272 174.708, 85.870 176.749 C 86.767 177.894, 90.988 183.090, 95.250 188.296 L 103 197.762 102.910 220.631 C 102.845 237.011, 102.547 242.555, 101.860 240.169 C 100.652 235.974, 99.131 236.990, 95.497 244.416 C 92.765 250, 92.213 253.723, 93.408 258.500 L 94.158 261.500 92.117 259 C 90.995 257.625, 89.272 255.003, 88.288 253.174 C 86.311 249.496, 85.994 250.029, 93.215 244.866 C 95.306 243.370, 95.500 242.464, 95.500 234.199 C 95.500 229.231, 95.174 224.840, 94.775 224.442 C 93.902 223.569, 90.906 226.946, 87.358 232.800 C 85.254 236.271, 84.848 237.958, 85.253 241.550 C 85.529 243.998, 85.449 246, 85.076 246 C 84.160 246, 80 237.332, 80 235.422 C 80 234.584, 81.606 233.227, 83.569 232.407 C 88.159 230.489, 90 226.173, 90 217.329 L 90 210.594 85.877 214.547 C 81.200 219.031, 77.822 225.603, 78.622 228.663 C 79.304 231.269, 76.055 232.850, 74.763 230.541 C 73.158 227.673, 68.265 226, 61.482 226 L 54.864 226 57.063 229.089 C 58.273 230.788, 61.116 233.522, 63.381 235.164 C 67.511 238.158, 68.067 238.219, 75.181 236.457 C 77.633 235.850, 78.086 236.237, 80.498 240.996 C 83.069 246.070, 83.218 248.985, 80.740 245.722 C 78.721 243.064, 74.032 241.852, 68.462 242.548 C 60.412 243.554, 59.813 244.456, 64.500 248.517 C 66.700 250.423, 70.433 252.731, 72.797 253.645 C 76.960 255.256, 77.183 255.241, 80.006 253.154 C 81.608 251.969, 83.504 251, 84.218 251 C 85.468 251, 92.221 261.112, 91.472 261.862 C 91.270 262.063, 89.896 261.277, 88.418 260.114 C 85.185 257.571, 82.494 257.477, 74.787 259.640 C 69.210 261.205, 69.019 261.364, 70.606 263.118 C 72.832 265.577, 81.838 270, 84.620 270 C 85.844 270, 88.184 268.875, 89.818 267.500 C 91.452 266.125, 93.190 265, 93.681 265 C 94.172 265, 96.253 267.250, 98.306 270 C 102.297 275.346, 102.330 275.918, 98.505 273.412 C 96.817 272.305, 95.083 272.035, 92.791 272.520 C 87.430 273.656, 79.898 277.192, 80.288 278.389 C 80.806 279.976, 90.928 283.933, 94.563 283.969 C 96.686 283.991, 98.507 283.080, 100.500 281 C 102.081 279.350, 103.632 278, 103.947 278 C 104.262 278, 106.941 280.250, 109.901 283 C 113.087 285.960, 114.637 288, 113.701 288 C 112.830 288, 111.840 287.550, 111.500 287 C 109.747 284.164, 96.844 288.200, 92.572 292.921 C 90.941 294.723, 91.084 294.867, 96.176 296.558 C 99.092 297.527, 103.441 298.360, 105.840 298.410 C 109.704 298.490, 110.562 298.072, 113.351 294.750 C 115.083 292.687, 117.059 291, 117.741 291 C 118.701 291, 126.346 296.207, 128.921 298.615 C 129.153 298.831, 127.258 298.723, 124.712 298.374 C 120.649 297.817, 119.487 298.121, 115.233 300.850 C 112.566 302.562, 109.374 305.038, 108.138 306.353 C 106.050 308.575, 106.018 308.793, 107.683 309.432 C 111.104 310.745, 121.515 311.189, 124.209 310.138 C 125.788 309.521, 127.778 307.396, 128.979 305.040 C 130.113 302.818, 131.402 301, 131.843 301 C 132.850 301, 144 307.007, 144 307.550 C 144 307.770, 142.674 307.685, 141.053 307.361 C 137.296 306.609, 132.522 309.466, 126.927 315.814 L 122.797 320.500 130.077 320.797 C 139.231 321.171, 142.778 319.787, 144.727 315.078 C 147.173 309.170, 147.394 309.083, 154 311.397 C 160.582 313.703, 161.513 314.667, 157.159 314.667 C 153.726 314.667, 150.418 317.032, 146.238 322.478 C 141.083 329.193, 141.073 330.007, 146.143 329.956 C 151.212 329.905, 157.314 327.931, 160.047 325.458 C 161.099 324.505, 162.242 322.228, 162.585 320.398 C 162.928 318.568, 163.757 316.616, 164.427 316.060 C 165.502 315.169, 172.196 316.598, 186.250 320.720 C 187.213 321.002, 188 320.708, 188 320.066 C 188 318.491, 183.100 316.600, 173.687 314.543 C 165.194 312.687, 164.089 311.613, 165.980 307.048 C 168.005 302.158, 166.366 298.133, 159.755 291.764 C 156.464 288.594, 153.358 286, 152.852 286 C 151.709 286, 152.673 294.695, 154.589 301.670 C 155.528 305.086, 156.941 307.535, 158.755 308.888 C 162.329 311.555, 160.149 311.550, 153.935 308.877 C 148.525 306.549, 148.204 305.737, 150.658 300.591 C 152.201 297.355, 152.201 296.818, 150.658 292.807 C 148.777 287.918, 141.303 278.695, 139.916 279.552 C 138.667 280.324, 138.767 292.620, 140.060 297.275 C 140.636 299.352, 141.984 301.597, 143.054 302.266 C 147.175 304.839, 144.738 304.850, 139.500 302.281 C 133.314 299.247, 132.778 297.713, 136.052 292.417 C 138.615 288.268, 137.733 284.187, 132.448 275.750 C 128.985 270.222, 127.022 268.607, 126.980 271.250 C 126.969 271.938, 126.558 275.276, 126.067 278.670 C 125.044 285.743, 126.082 291.856, 128.622 293.713 C 129.575 294.409, 130.068 295.265, 129.720 295.614 C 128.977 296.356, 119.834 290.002, 119.288 288.365 C 119.084 287.753, 120.122 285.820, 121.595 284.069 C 124.331 280.818, 125.076 275.967, 123.569 271.217 L 122.865 269 142.183 269.078 L 161.500 269.157 177.071 288.328 C 190.011 304.261, 193.078 307.500, 195.226 307.500 C 197.356 307.500, 200.642 304.121, 213.946 288.250 L 230.082 269 249.446 269 L 268.810 269 268.302 274.750 C 267.847 279.896, 268.067 280.815, 270.395 283.500 C 271.827 285.150, 272.998 287.042, 272.999 287.704 C 273 288.950, 262.848 297.181, 262.159 296.493 C 261.946 296.280, 262.711 294.911, 263.860 293.451 C 265.008 291.991, 266.229 289.294, 266.574 287.457 C 267.230 283.958, 265.300 269.999, 264.160 270.002 C 263.205 270.005, 257.276 279.003, 256.046 282.315 C 254.583 286.253, 254.797 291.147, 256.532 293.441 C 259.260 297.048, 258.348 299.304, 252.929 302.347 C 250.141 303.913, 247.558 304.891, 247.189 304.522 C 246.819 304.152, 247.343 303.388, 248.352 302.823 C 251.384 301.126, 253 295.636, 253 287.032 C 253 282.614, 252.586 279, 252.081 279 C 250.459 279, 242.012 290.375, 240.877 294.088 C 239.989 296.993, 240.087 298.267, 241.390 300.788 C 242.276 302.500, 243 304.550, 243 305.343 C 243 307.184, 240.287 308.276, 239.644 306.694 C 239.369 306.018, 239.124 306.226, 239.079 307.172 C 239.032 308.169, 237.559 309.321, 235.433 310.022 C 231.164 311.431, 229.640 310.577, 233.381 308.872 C 236.397 307.498, 238.467 301.831, 239.595 291.866 C 240.247 286.098, 240.184 285.833, 238.392 286.816 C 234.877 288.745, 228.256 295.479, 226.529 298.881 C 225.061 301.773, 224.987 302.881, 226.015 306.552 C 226.675 308.911, 226.937 311.293, 226.597 311.843 C 226.256 312.394, 222.720 313.572, 218.739 314.460 C 207.952 316.867, 205 317.990, 205 319.685 C 205 320.742, 205.540 320.997, 206.750 320.512 C 211.183 318.734, 227.538 315.138, 228.197 315.797 C 228.603 316.203, 229.306 318.322, 229.760 320.506 C 230.808 325.550, 235.114 328.620, 242.419 329.533 C 251.576 330.677, 251.818 330.319, 246.641 323.293 C 241.657 316.528, 237.183 313.510, 233.700 314.561 C 229.461 315.840, 233.384 313.196, 238.699 311.191 C 243.498 309.382, 244.008 309.357, 245.315 310.865 C 246.094 311.764, 247.033 313.767, 247.401 315.316 C 248.360 319.347, 253.298 321.160, 262.319 320.792 L 269.500 320.500 264.531 315.163 C 258.864 309.074, 254.781 306.618, 251.402 307.263 C 247.900 307.933, 249.513 306.280, 255.150 303.424 C 260.632 300.646, 262.298 301.069, 263.416 305.523 C 264.596 310.224, 272.263 312.168, 281.329 310.064 C 283.435 309.575, 285.400 308.934, 285.695 308.639 C 286.434 307.899, 281.382 303.492, 276.193 300.351 C 272.595 298.172, 271.141 297.846, 267.352 298.365 L 262.817 298.987 268.131 294.993 C 271.055 292.797, 273.998 291, 274.672 291 C 275.347 291, 277.066 292.531, 278.494 294.403 C 279.921 296.274, 282.180 298.079, 283.513 298.414 C 287.213 299.342, 301 295.933, 301 294.090 C 301 293.723, 298.551 291.938, 295.557 290.124 C 289.419 286.404, 282.852 285.048, 280.485 287.012 C 279.642 287.712, 278.748 288.081, 278.499 287.832 C 278.250 287.583, 280.282 285.177, 283.015 282.485 L 287.983 277.592 291.289 280.796 C 293.664 283.097, 295.533 284, 297.923 284 C 301.912 284, 313.207 279.144, 312.370 277.790 C 311.621 276.578, 304.415 273.470, 300.219 272.548 C 298.072 272.077, 295.973 272.366, 293.846 273.427 C 292.102 274.297, 290.554 274.888, 290.407 274.740 C 290.259 274.592, 292.068 272.247, 294.427 269.527 L 298.716 264.583 301.935 267.292 C 303.705 268.781, 306.259 270, 307.610 270 C 311.073 270, 323 263.576, 323 261.711 C 323 260.822, 312.529 258, 309.231 258 C 307.602 258, 305.060 258.951, 303.582 260.114 C 302.104 261.277, 300.706 262.039, 300.476 261.809 C 299.793 261.126, 306.956 251, 308.122 251 C 308.710 251, 310.526 251.950, 312.158 253.112 C 315.014 255.146, 315.282 255.164, 319.411 253.587 C 321.770 252.686, 325.622 250.304, 327.972 248.292 C 332.786 244.171, 332.566 243.876, 323.716 242.572 C 318.288 241.772, 312.516 243.255, 311.083 245.817 C 309.002 249.535, 309.381 246.140, 311.606 241.133 C 313.835 236.114, 314.170 235.810, 316.745 236.454 C 325.568 238.660, 325.687 238.628, 331.788 232.364 L 337.500 226.500 331.542 226.194 C 323.912 225.802, 321.394 226.472, 318.415 229.686 C 315.572 232.754, 315.432 232.024, 317.628 225.579 L 319.256 220.801 324.555 221.464 C 329.607 222.095, 330.034 221.963, 333.677 218.656 C 335.780 216.748, 338.352 213.727, 339.394 211.945 L 341.289 208.703 334.644 209.236 C 327.551 209.806, 323.091 211.937, 322.248 215.158 C 321.934 216.361, 321.179 216.899, 320.287 216.557 C 319.489 216.250, 318.648 216, 318.418 216 C 318.188 216, 318 214.335, 318 212.299 C 318 209.071, 317.201 207.825, 311.750 202.549 C 304.625 195.653, 303.999 196.099, 305.942 206.690 C 307.203 213.565, 309.721 217.383, 313.276 217.809 C 317.650 218.334, 318.410 220.249, 316.512 225.964 C 314.852 230.961, 312.419 233.164, 313.554 228.642 C 314.409 225.234, 311.931 220.158, 306.894 215 L 302.500 210.500 302.208 216.542 C 301.784 225.294, 303.623 230.071, 308.252 232.251 C 312.775 234.381, 313.006 236.528, 309.408 243 L 306.907 247.500 307.427 243.490 C 307.811 240.530, 307.322 238.171, 305.561 234.490 C 302.847 228.815, 298.492 223.190, 297.541 224.132 C 297.191 224.479, 296.646 227.854, 296.331 231.632 C 295.711 239.055, 297.627 246, 300.294 246 C 301.062 246, 302.525 246.923, 303.546 248.051 C 305.360 250.056, 305.347 250.205, 302.951 254.623 C 299.912 260.229, 297.269 262.775, 298.407 259 C 300.313 252.684, 300.200 251.789, 296.572 244.448 C 294.547 240.352, 292.510 237, 292.045 237 C 291.579 237, 290.750 238.688, 290.203 240.750 C 289.458 243.553, 289.188 238.563, 289.131 221 L 289.056 197.500 298.120 186.500 C 303.105 180.450, 307.518 175.375, 307.926 175.222 C 308.333 175.069, 309.192 176.696, 309.833 178.837 C 311.640 184.868, 314.468 187.834, 318.753 188.191 C 321.437 188.415, 322.768 189.133, 323.596 190.804 C 324.709 193.049, 324.752 193.056, 325.276 191.054 C 325.705 189.412, 326.618 189, 329.834 189 C 333.206 189, 334.316 188.440, 336.716 185.528 C 339.725 181.878, 342.594 175.260, 341.598 174.265 C 340.546 173.213, 333.160 175.994, 330.045 178.616 C 328.370 180.025, 327 182.011, 327 183.030 C 327 184.049, 326.550 185.160, 326 185.500 C 325.380 185.883, 325 184.034, 325 180.630 C 325 174.441, 326.888 171.512, 330.199 172.563 C 333.128 173.493, 337.358 168.933, 339.550 162.483 C 340.564 159.501, 341.124 156.790, 340.794 156.460 C 340.007 155.674, 332.125 159.653, 329.250 162.287 C 328.013 163.421, 327 165.369, 327 166.615 C 327 170.302, 325.014 170.482, 324.868 166.809 L 324.737 163.500 324.044 167 L 323.351 170.500 322.563 167.735 C 322.130 166.214, 320.363 163.848, 318.638 162.478 C 316.024 160.403, 315.750 159.824, 317 159.009 C 319.308 157.504, 321.993 157.818, 322.706 159.677 C 323.281 161.175, 323.422 161.148, 324.024 159.431 C 324.423 158.294, 326.292 157.077, 328.599 156.453 C 331.788 155.590, 332.905 154.584, 334.715 150.948 C 335.934 148.502, 337.239 144.522, 337.616 142.104 L 338.302 137.708 335.063 139.604 C 330.008 142.562, 325.002 147.875, 324.985 150.298 C 324.976 151.509, 324.503 153.175, 323.933 154 C 323.037 155.296, 322.734 155.234, 321.698 153.541 C 321.039 152.464, 319.302 150.486, 317.837 149.145 C 316.373 147.805, 315.409 146.099, 315.694 145.354 C 316.522 143.197, 319.978 143.784, 320.969 146.250 C 321.796 148.309, 321.879 148.231, 321.937 145.329 C 321.990 142.636, 322.454 142.059, 325.017 141.496 C 326.968 141.068, 328.578 139.783, 329.571 137.863 C 331.555 134.026, 332.685 125, 331.181 125 C 329.103 125, 322.151 132.551, 321.493 135.523 C 320.162 141.528, 320.004 141.688, 317.926 139.139 C 316.867 137.841, 316.007 135.366, 316.015 133.639 C 316.026 131.538, 316.310 130.941, 316.877 131.835 C 317.526 132.859, 317.842 132.712, 318.238 131.198 C 318.521 130.114, 320.046 128.608, 321.627 127.852 C 325.058 126.209, 326.879 121.603, 326.905 114.500 L 326.924 109.500 322.022 114.754 C 318.352 118.689, 317.022 120.950, 316.728 123.754 C 316.453 126.386, 316.286 125.713, 316.168 121.491 C 316.030 116.553, 316.340 115.269, 317.903 114.292 C 320.200 112.858, 321.409 106.695, 320.423 101.439 L 319.710 97.640 317.881 99.899 C 316.088 102.113, 316.046 101.844, 315.776 86.408 L 315.500 70.657 308.071 79.579 C 303.985 84.485, 300.512 88.673, 300.352 88.885 C 300.193 89.097, 298.923 88.525, 297.531 87.612 L 295 85.954 294.999 90.727 C 294.998 95.055, 294.462 96.155, 289.249 102.528 C 286.087 106.393, 282.488 110.641, 281.250 111.967 L 279 114.377 279 103.189 C 279 92.218, 278.956 92.002, 276.750 92.116 C 275.057 92.203, 274.933 92.345, 276.250 92.689 C 277.783 93.090, 278 94.512, 278 104.169 C 278 116.740, 278.489 115.642, 266.544 129.921 L 259.500 138.342 259.227 120.031 C 259.002 104.982, 259.225 101.305, 260.477 99.395 C 261.315 98.116, 262 96.186, 262 95.105 C 262 93.861, 262.827 92.980, 264.250 92.706 L 266.500 92.272 264.193 92.136 C 262.113 92.013, 261.915 91.579, 262.193 87.750 L 262.500 83.500 268.500 82.918 L 274.500 82.336 268.250 82.168 L 262 82 262 66 L 262 50 257.500 50 L 253 50 253 66 C 253 81.333, 252.917 82, 251 82 C 249.121 82, 249 81.333, 249 71 L 249 60 244 60 L 239 60 239 71 C 239 77.667, 238.606 82, 238 82 C 237.375 82, 237 76, 237 66 L 237 50 232 50 L 227 50 227 65.969 L 227 81.938 214.750 82.253 L 202.500 82.568 214.750 82.784 L 227 83 227 87.469 L 227 91.938 214.750 92.253 L 202.500 92.568 214.750 92.784 L 227 93 227 96.500 C 227 99.648, 227.276 100.001, 229.750 100.014 C 231.262 100.021, 233.512 100.299, 234.750 100.630 C 236.817 101.184, 237 100.898, 237 97.117 C 237 91.182, 238.732 92.045, 239.273 98.250 C 239.524 101.138, 240.087 104.583, 240.523 105.906 C 241.090 107.628, 240.986 108.109, 240.158 107.597 C 239.313 107.075, 239 109.383, 239 116.141 C 239 121.758, 239.359 125.026, 239.914 124.450 C 240.416 123.927, 242.666 121.258, 244.914 118.518 L 249 113.537 249 103.195 C 249 93.884, 249.174 92.887, 250.750 93.192 C 252.359 93.503, 252.511 95.644, 252.642 119.840 L 252.784 146.150 246.642 153.704 C 243.264 157.859, 239.462 162.437, 238.194 163.879 L 235.888 166.500 236.194 136.500 L 236.500 106.500 231.750 106.195 L 227 105.890 227 122.945 C 227 133.648, 227.372 140, 228 140 C 228.628 140, 229 146.435, 229 157.306 C 229 177.352, 230.876 172.985, 213.103 194.319 L 201.706 208 196.075 208 L 190.444 208 177.725 192.750 L 165.005 177.500 165.036 154.500 C 165.054 141.850, 165.052 125.763, 165.034 118.750 L 165 106 160.500 106 L 156 106 156 117.800 C 156 124.512, 156.441 130.041, 157.023 130.623 C 157.667 131.267, 157.945 138.428, 157.773 149.933 L 157.500 168.220 150.961 160.360 C 139.375 146.433, 140 147.989, 140 133.037 C 140 122.803, 140.278 120.039, 141.250 120.588 C 142.250 121.152, 142.250 121.024, 141.250 119.947 C 140.385 119.015, 140 114.655, 140 105.800 C 140 95.089, 140.245 93, 141.500 93 C 142.735 93, 143 94.794, 143 103.147 L 143 113.294 146.750 117.837 C 148.813 120.335, 151.048 123.081, 151.718 123.940 C 152.701 125.198, 152.943 123.700, 152.968 116.191 C 152.992 109.332, 152.692 107.072, 151.830 107.605 C 150.994 108.122, 150.905 107.782, 151.520 106.414 C 151.992 105.361, 152.560 101.889, 152.781 98.697 C 153.237 92.112, 155.298 91.249, 155.816 97.427 C 156.096 100.758, 156.388 101.130, 158.316 100.613 C 159.517 100.291, 161.512 100.021, 162.750 100.014 C 164.648 100.002, 165 99.458, 165 96.530 L 165 93.060 177.750 92.747 L 190.500 92.435 177.693 92.217 L 164.885 92 165.193 87.750 L 165.500 83.500 178 82.953 L 190.500 82.405 177.750 82.203 L 165 82 165 66 L 165 50 162.582 50 C 161.252 50, 159.541 49.761, 158.780 49.469 C 158.018 49.177, 157.082 49.252, 156.698 49.636 M 276.762 82.707 C 278.006 82.946, 279.806 82.937, 280.762 82.687 C 281.718 82.437, 280.700 82.241, 278.500 82.252 C 276.300 82.263, 275.518 82.468, 276.762 82.707 M 140 87.500 C 140 90.833, 140.389 92, 141.500 92 C 142.611 92, 143 90.833, 143 87.500 C 143 84.167, 142.611 83, 141.500 83 C 140.389 83, 140 84.167, 140 87.500 M 153 87.417 C 153 90.899, 153.374 92, 154.557 92 C 155.768 92, 156.046 91.070, 155.807 87.828 C 155.368 81.861, 153 81.515, 153 87.417 M 237 87.500 C 237 89.975, 237.450 92, 238 92 C 238.550 92, 239 89.975, 239 87.500 C 239 85.025, 238.550 83, 238 83 C 237.450 83, 237 85.025, 237 87.500 M 249 87.427 C 249 91.376, 249.281 92, 251.057 92 C 252.859 92, 253.077 91.472, 252.807 87.759 C 252.583 84.665, 252.027 83.427, 250.750 83.185 C 249.290 82.908, 249 83.611, 249 87.427 M 116.500 96 C 117.495 97.100, 118.535 98, 118.810 98 C 119.085 98, 118.495 97.100, 117.500 96 C 116.505 94.900, 115.465 94, 115.190 94 C 114.915 94, 115.505 94.900, 116.500 96 M 73.079 135.583 C 73.127 136.748, 73.364 136.985, 73.683 136.188 C 73.972 135.466, 73.936 134.603, 73.604 134.271 C 73.272 133.939, 73.036 134.529, 73.079 135.583 M 322.158 152 C 322.158 153.375, 322.385 153.938, 322.662 153.250 C 322.940 152.563, 322.940 151.438, 322.662 150.750 C 322.385 150.063, 322.158 150.625, 322.158 152 M 82.146 155.254 C 80.101 157.299, 80.792 159.090, 83.376 158.442 C 85.457 157.920, 85.695 158.143, 85.295 160.237 C 84.938 162.103, 86.779 165.023, 93.669 173.521 C 101.810 183.562, 102.525 184.197, 102.823 181.642 C 103.204 178.364, 102.689 177.559, 91.725 164.304 C 85.387 156.641, 83.007 154.393, 82.146 155.254 M 298.691 166.209 C 290.430 176.229, 288.930 178.581, 289.191 181.108 C 289.486 183.973, 289.917 183.604, 298.734 172.959 C 306.817 163.201, 307.832 161.555, 306.876 159.768 C 305.883 157.913, 306.025 157.772, 308.415 158.229 C 311.684 158.853, 312.508 157.743, 310.226 155.789 C 308.646 154.435, 307.673 155.314, 298.691 166.209 M 78.137 171.749 C 76.829 172.660, 74.254 173.291, 72.368 173.164 C 68.276 172.889, 67.772 173.853, 68.213 181.119 C 68.510 186.014, 68.617 186.229, 69.401 183.500 C 70.523 179.594, 73.581 176.276, 78.285 173.864 C 80.367 172.797, 81.803 171.491, 81.476 170.962 C 80.760 169.803, 81.023 169.741, 78.137 171.749 M 311 171.379 C 311 172.137, 312.238 173.283, 313.750 173.926 C 317.908 175.692, 320.870 178.482, 322.508 182.173 L 323.984 185.500 323.742 179.500 L 323.500 173.500 319.818 173.466 C 317.784 173.448, 315.287 172.665, 314.239 171.716 C 311.945 169.641, 311 169.542, 311 171.379 M 283.246 184.929 C 280.260 188.679, 279.009 191.187, 279.030 193.381 L 279.060 196.500 283.026 192 C 287.118 187.357, 288.428 184.462, 287.834 181.377 C 287.575 180.032, 286.453 180.901, 283.246 184.929 M 104.021 183.750 C 104.034 185.568, 105.546 188.195, 108.482 191.500 L 112.923 196.500 112.962 193.496 C 112.987 191.488, 111.757 188.935, 109.250 185.794 C 107.188 183.210, 105.162 181.074, 104.750 181.048 C 104.338 181.022, 104.009 182.238, 104.021 183.750 M 79.875 186.864 C 74.108 190.522, 71 194.489, 71 198.194 C 71 199.802, 70.588 200.864, 70.085 200.553 C 69.582 200.242, 68.969 200.553, 68.722 201.244 C 68.475 201.935, 67.472 200.852, 66.493 198.837 C 64.594 194.930, 60.840 192.743, 53.250 191.121 C 48.060 190.012, 47.937 190.669, 52.116 197.181 C 56.741 204.388, 59.283 206.060, 64.522 205.342 L 68.855 204.748 69.987 209.124 C 70.610 211.531, 71.348 214.287, 71.627 215.250 C 71.906 216.213, 71.707 217, 71.184 217 C 70.661 217, 70.010 216.146, 69.737 215.102 C 68.908 211.934, 64.408 209.802, 57.349 209.236 L 50.699 208.702 53.852 213.285 C 55.586 215.805, 58.417 218.873, 60.144 220.102 C 62.867 222.041, 63.787 222.203, 67.083 221.323 C 69.172 220.766, 71.373 220.613, 71.973 220.983 C 72.572 221.354, 73.928 223.872, 74.985 226.579 C 77.200 232.253, 77.691 231.210, 75.598 225.277 C 73.973 220.671, 74.572 219.209, 78.518 218.154 C 80.083 217.735, 82.209 216.262, 83.241 214.880 C 85.204 212.249, 87.886 199.553, 86.723 198.390 C 85.728 197.394, 77.203 204.707, 75.484 208.030 C 74.668 209.609, 73.986 212.386, 73.970 214.200 C 73.945 216.919, 73.760 217.193, 72.923 215.756 C 72.364 214.797, 71.643 211.783, 71.320 209.058 C 70.749 204.232, 70.808 204.088, 73.617 203.460 C 75.203 203.105, 77.333 202.586, 78.350 202.308 C 79.368 202.029, 81.063 199.851, 82.118 197.466 C 84.229 192.693, 86.133 184, 85.067 184 C 84.695 184, 82.359 185.289, 79.875 186.864 M 307 186.318 C 307 190.253, 309.842 198.453, 312.014 200.784 C 313.149 202.003, 315.153 203, 316.468 203 C 320.510 203, 321.941 205.315, 320.864 210.112 C 320.348 212.405, 320.080 214.741, 320.268 215.303 C 320.455 215.866, 321.191 213.723, 321.903 210.541 L 323.198 204.755 327.505 205.346 C 332.680 206.055, 335.733 204.068, 340.136 197.125 C 344.326 190.518, 344.058 189.934, 337.538 191.450 C 330.917 192.989, 327.308 195.223, 325.704 198.773 L 324.500 201.440 323.892 197.470 L 323.284 193.500 323.142 197.309 C 322.991 201.368, 321 201.616, 321 197.576 C 321 194.567, 317.908 190.721, 312.494 186.996 C 307.259 183.394, 307 183.362, 307 186.318 M 114 195.172 C 114 198.075, 117.021 202.219, 136.082 225.464 C 148.226 240.274, 159.004 253.461, 160.031 254.767 C 161.291 256.368, 162.704 257.038, 164.368 256.821 C 166.647 256.525, 165.838 255.272, 153.826 240.500 C 146.671 231.700, 139.845 223.365, 138.658 221.977 C 137.471 220.589, 134.711 217.214, 132.525 214.477 C 130.338 211.740, 125.276 205.519, 121.275 200.654 C 114.104 191.935, 114 191.857, 114 195.172 M 252.500 222.129 C 238.750 238.779, 226.680 253.436, 225.677 254.701 C 223.864 256.988, 223.869 257, 226.677 256.937 C 229.136 256.881, 232.636 253.065, 253.807 227.357 C 275.024 201.594, 278.076 197.461, 277.807 194.849 C 277.526 192.106, 275.414 194.382, 252.500 222.129 M 68.232 196 C 68.232 197.925, 68.438 198.713, 68.689 197.750 C 68.941 196.787, 68.941 195.213, 68.689 194.250 C 68.438 193.287, 68.232 194.075, 68.232 196 M 104.080 227.500 L 104.084 255.500 105.968 252 L 107.853 248.500 109.479 252.343 C 110.373 254.456, 111.597 258.642, 112.200 261.644 C 113.359 267.413, 114.050 267.529, 115.811 262.250 C 116.788 259.324, 116.701 259, 114.948 259 C 113.070 259, 112.999 258.106, 112.979 234.250 L 112.959 209.500 108.518 204.500 L 104.077 199.500 104.080 227.500 M 283.046 204.750 C 279.350 209.022, 278.948 210.004, 279.053 214.500 C 279.118 217.250, 279.132 228.387, 279.085 239.250 C 279.013 256.101, 278.780 259, 277.500 259 C 275.710 259, 275.652 259.702, 277.098 263.851 C 278.549 268.014, 280 267.856, 280 263.535 C 280 260, 282.540 251.194, 284.008 249.640 C 284.455 249.167, 285.517 250.067, 286.368 251.640 C 287.798 254.281, 287.917 252.416, 287.927 227.250 C 287.933 212.262, 287.761 200, 287.546 200 C 287.331 200, 285.306 202.137, 283.046 204.750 M 258.874 233.990 L 240.248 256.500 258.768 256.773 C 268.954 256.923, 277.457 256.876, 277.663 256.670 C 277.870 256.464, 277.917 246.212, 277.769 233.887 L 277.500 211.480 258.874 233.990 M 114.231 234.531 L 114.500 257.500 128 257.592 C 135.425 257.643, 143.616 257.418, 146.201 257.092 L 150.903 256.500 133.482 235.080 C 123.900 223.300, 115.589 213.189, 115.011 212.611 C 114.278 211.878, 114.043 218.491, 114.231 234.531 M 99.223 259.944 C 97.450 261.563, 96 263.289, 96 263.780 C 96 265.124, 103.218 274.116, 103.816 273.517 C 104.102 273.231, 103.746 271.893, 103.024 270.544 C 102.154 268.919, 101.904 266.219, 102.283 262.546 C 102.598 259.495, 102.763 257, 102.651 257 C 102.538 257, 100.995 258.325, 99.223 259.944 M 289.006 257.699 C 289.009 258.140, 289.480 260.187, 290.053 262.250 C 290.890 265.264, 290.765 266.693, 289.416 269.536 C 288.493 271.480, 287.955 273.289, 288.221 273.554 C 288.881 274.215, 296 264.972, 296 263.455 C 296 262.785, 294.425 261.036, 292.500 259.568 C 290.575 258.100, 289.003 257.259, 289.006 257.699 M 118 259.443 C 118 259.686, 118.944 261.486, 120.099 263.443 L 122.198 267 140.721 267 C 161.127 267, 160.052 267.445, 154.623 261.250 C 152.721 259.079, 152.042 259, 135.326 259 C 125.797 259, 118 259.199, 118 259.443 M 164.873 260.750 C 166.652 264.051, 170.783 267.168, 172.932 266.832 C 174.973 266.514, 174.933 266.347, 171.957 262.750 C 169.907 260.272, 168.019 259, 166.392 259 C 164.354 259, 164.092 259.302, 164.873 260.750 M 218.907 262.750 C 215.692 266.404, 215.665 266.508, 217.859 266.827 C 220.394 267.195, 222.171 265.973, 225.115 261.839 L 227.136 259 224.672 259 C 223.077 259, 221.042 260.324, 218.907 262.750 M 236.377 261.250 C 230.941 267.453, 229.775 267, 251.192 267 L 270.630 267 272.315 263.466 C 273.242 261.522, 274 259.722, 274 259.466 C 274 259.210, 265.978 259, 256.174 259 C 238.939 259, 238.283 259.075, 236.377 261.250 M 109.687 271.805 C 108.209 273.347, 107 275.279, 107 276.097 C 107 276.914, 109.025 279.571, 111.500 282 C 114.418 284.864, 116 285.859, 116 284.831 C 116 283.958, 115.289 282.655, 114.421 281.934 C 113.232 280.948, 112.923 279.185, 113.171 274.810 C 113.352 271.612, 113.247 268.997, 112.937 268.998 C 112.627 268.999, 111.165 270.262, 109.687 271.805 M 173.193 270.780 C 173.912 271.760, 178.747 277.835, 183.938 284.280 C 190.585 292.534, 193.986 295.988, 195.438 295.958 C 196.830 295.929, 200.262 292.478, 206 285.338 C 210.675 279.520, 215.545 273.464, 216.822 271.880 L 219.145 269 216.466 269 C 214.735 269, 213.030 269.969, 211.644 271.741 C 204.939 280.314, 196.635 289, 195.145 289 C 194.188 289, 189.760 284.571, 185.148 279 C 178.711 271.225, 176.315 269, 174.378 269 C 172.166 269, 172.033 269.200, 173.193 270.780 M 279 274.695 C 279 278.978, 278.518 281.339, 277.420 282.438 C 276.550 283.307, 275.992 284.477, 276.179 285.037 C 276.366 285.598, 278.752 283.789, 281.482 281.018 L 286.446 275.979 282.723 272.256 L 279 268.533 279 274.695 M 181.367 328.351 C 169.329 334.840, 154.143 346.804, 155.387 348.818 C 156.846 351.177, 160.295 349.897, 165.840 344.938 C 168.953 342.154, 175.213 337.347, 179.750 334.257 C 185.002 330.681, 188 327.978, 188 326.820 C 188 325.819, 187.887 325.010, 187.750 325.023 C 187.613 325.035, 184.740 326.533, 181.367 328.351 M 205.026 327.155 C 205.045 328.946, 206.639 330.511, 211.776 333.782 C 215.474 336.137, 221.563 340.749, 225.308 344.032 C 231.962 349.866, 235.136 351.207, 236.617 348.811 C 237.920 346.703, 224.315 335.934, 209.750 327.546 L 205 324.810 205.026 327.155" stroke="none" fill="black" fill-rule="evenodd"/>
</svg>